<svg width="16" height="16" viewBox="0 0 16 16" fill="none" xmlns="http://www.w3.org/2000/svg">
<path d="M6.27501 11.7864C6.52542 12.0034 6.90436 11.9764 7.12138 11.726C7.33841 11.4756 7.31134 11.0966 7.06093 10.8796L6.27501 11.7864ZM3.33464 8.44412L2.92524 8.00549C2.80085 8.12159 2.7316 8.28504 2.73474 8.45517C2.73787 8.6253 2.81309 8.78609 2.94168 8.89753L3.33464 8.44412ZM7.07736 5.77164C7.31961 5.54554 7.3327 5.16587 7.1066 4.92362C6.8805 4.68137 6.50083 4.66827 6.25858 4.89438L7.07736 5.77164ZM7.06093 10.8796L3.72759 7.99071L2.94168 8.89753L6.27501 11.7864L7.06093 10.8796ZM3.74403 8.88275L7.07736 5.77164L6.25858 4.89438L2.92524 8.00549L3.74403 8.88275Z" fill="#022E64"/>
<path d="M13.334 8.33301L4.00065 8.33301" stroke="#022E64" stroke-width="1.5" stroke-linecap="round"/>
</svg>
