<svg width="24" height="24" viewBox="0 0 24 24" fill="none" xmlns="http://www.w3.org/2000/svg">
<path d="M15.0056 16.0663C15.2985 16.3592 15.7734 16.3592 16.0663 16.0663C16.3591 15.7734 16.3591 15.2985 16.0663 15.0056L13.0611 12.0004L16.0662 8.99519C16.3591 8.7023 16.3591 8.22743 16.0662 7.93453C15.7734 7.64164 15.2985 7.64164 15.0056 7.93453L12.0004 10.9398L8.99519 7.93452C8.70229 7.64162 8.22742 7.64162 7.93453 7.93452C7.64163 8.22741 7.64163 8.70228 7.93453 8.99518L10.9397 12.0004L7.93452 15.0056C7.64162 15.2985 7.64162 15.7734 7.93452 16.0663C8.22741 16.3592 8.70228 16.3592 8.99518 16.0663L12.0004 13.0611L15.0056 16.0663Z" fill="black"/>
</svg>
