<svg width="24" height="24" viewBox="0 0 24 24" fill="none" xmlns="http://www.w3.org/2000/svg">
<path d="M12.0002 11.3333C12.9231 11.3333 13.8254 11.0596 14.5928 10.5469C15.3603 10.0341 15.9584 9.30525 16.3116 8.45253C16.6648 7.5998 16.7572 6.66149 16.5772 5.75625C16.3971 4.851 15.9526 4.01948 15.3 3.36684C14.6473 2.71419 13.8158 2.26974 12.9106 2.08967C12.0053 1.90961 11.067 2.00202 10.2143 2.35523C9.36158 2.70844 8.63275 3.30658 8.11997 4.07401C7.60719 4.84144 7.3335 5.74369 7.3335 6.66667C7.3335 7.90435 7.82516 9.09133 8.70033 9.9665C9.5755 10.8417 10.7625 11.3333 12.0002 11.3333ZM12.0002 3.33334C12.6594 3.33334 13.3039 3.52883 13.8521 3.8951C14.4002 4.26137 14.8275 4.78197 15.0798 5.39106C15.3321 6.00014 15.3981 6.67037 15.2694 7.31697C15.1408 7.96357 14.8234 8.55752 14.3572 9.02369C13.891 9.48987 13.2971 9.80734 12.6505 9.93595C12.0039 10.0646 11.3336 9.99856 10.7246 9.74627C10.1155 9.49398 9.59487 9.06673 9.2286 8.51857C8.86233 7.97041 8.66683 7.32594 8.66683 6.66667C8.66683 5.78261 9.01802 4.93477 9.64314 4.30965C10.2683 3.68452 11.1161 3.33334 12.0002 3.33334Z" fill="black" fill-opacity="0.54"/>
<path d="M20.3135 16.2468C19.2444 15.1168 17.956 14.2167 16.5272 13.6016C15.0984 12.9865 13.5591 12.6692 12.0035 12.6692C10.4479 12.6692 8.90863 12.9865 7.4798 13.6016C6.05098 14.2167 4.76263 15.1168 3.6935 16.2468C3.46171 16.4944 3.33297 16.821 3.3335 17.1601V20.6668C3.3335 21.0204 3.47397 21.3595 3.72402 21.6096C3.97407 21.8596 4.31321 22.0001 4.66683 22.0001H19.3335C19.6871 22.0001 20.0263 21.8596 20.2763 21.6096C20.5264 21.3595 20.6668 21.0204 20.6668 20.6668V17.1601C20.6692 16.8219 20.5429 16.4954 20.3135 16.2468ZM19.3335 20.6668H4.66683V17.1534C5.61165 16.1586 6.74902 15.3663 8.00974 14.825C9.27045 14.2836 10.6281 14.0044 12.0002 14.0044C13.3722 14.0044 14.7299 14.2836 15.9906 14.825C17.2513 15.3663 18.3887 16.1586 19.3335 17.1534V20.6668Z" fill="black" fill-opacity="0.54"/>
</svg>
