<svg width="36" height="40" viewBox="0 0 36 40" fill="none" xmlns="http://www.w3.org/2000/svg">
<path d="M32 4.00001H23.64C22.8 1.68001 20.6 0 18 0C15.4 0 13.2 1.68001 12.36 4.00001H4C1.8 4.00001 0 5.80002 0 8.00002V36.0001C0 38.2001 1.8 40.0001 4 40.0001H32C34.2 40.0001 36 38.2001 36 36.0001V8.00002C36 5.80002 34.2 4.00001 32 4.00001ZM18 4.00001C19.1 4.00001 20 4.90002 20 6.00002C20 7.10002 19.1 8.00002 18 8.00002C16.9 8.00002 16 7.10002 16 6.00002C16 4.90002 16.9 4.00001 18 4.00001ZM14 32.0001L6 24.0001L8.82001 21.1801L14 26.3401L27.18 13.16L30 16L14 32.0001Z" fill="#3FC59D"/>
</svg>
