<svg width="17" height="17" viewBox="0 0 17 17" fill="none" xmlns="http://www.w3.org/2000/svg">
<g clip-path="url(#clip0)">
<path d="M8.5 3.43335C5.25197 3.43335 2.30648 5.21038 0.133016 8.09674C-0.0443388 8.33322 -0.0443388 8.66358 0.133016 8.90006C2.30648 11.7899 5.25197 13.5669 8.5 13.5669C11.748 13.5669 14.6935 11.7899 16.867 8.90353C17.0443 8.66706 17.0443 8.33669 16.867 8.10022C14.6935 5.21038 11.748 3.43335 8.5 3.43335ZM8.733 12.0681C6.57691 12.2037 4.79641 10.4267 4.93203 8.26714C5.04332 6.48664 6.4865 5.04345 8.267 4.93217C10.4231 4.79655 12.2036 6.57358 12.068 8.73313C11.9532 10.5102 10.51 11.9533 8.733 12.0681ZM8.62519 10.4197C7.46369 10.4928 6.50389 9.53645 6.58039 8.37495C6.63951 7.41514 7.41848 6.63965 8.37829 6.57705C9.53979 6.50403 10.4996 7.46035 10.4231 8.62185C10.3605 9.58513 9.58152 10.3606 8.62519 10.4197Z" fill="white"/>
<rect x="2" y="2.70703" width="1" height="17" transform="rotate(-45 2 2.70703)" fill="white"/>
</g>
<defs>
<clipPath id="clip0">
<rect width="17" height="17" fill="white"/>
</clipPath>
</defs>
</svg>
