<svg width="26" height="27" viewBox="0 0 26 27" fill="none" xmlns="http://www.w3.org/2000/svg">
<path d="M13 0.5C5.832 0.5 0 6.332 0 13.5C0 20.668 5.832 26.5 13 26.5C20.168 26.5 26 20.668 26 13.5C26 6.332 20.168 0.5 13 0.5ZM13 2.5C19.087 2.5 24 7.413 24 13.5C24 19.587 19.087 24.5 13 24.5C6.913 24.5 2 19.587 2 13.5C2 7.413 6.913 2.5 13 2.5ZM9.22 8.28L7.78 9.72L11.564 13.5L7.782 17.28L9.222 18.72L13 14.937L16.78 18.717L18.22 17.28L14.437 13.5L18.217 9.72L16.78 8.28L13 12.064L9.22 8.282V8.28Z" fill="black"/>
</svg>
