<svg width="17" height="17" viewBox="0 0 17 17" fill="none" xmlns="http://www.w3.org/2000/svg">
<path d="M8.50072 0C3.80651 0 0.00100708 3.80579 0.00100708 8.49983C0.00100708 13.1939 3.80651 17 8.50072 17C13.1949 17 17.0009 13.1941 17.0009 8.49983C17.0009 3.80556 13.1949 0 8.50072 0ZM12.5414 6.11688L11.7341 6.92421L10.0907 5.28094L9.46723 5.90438L11.1106 7.54777L7.07981 11.5782L5.43653 9.93514L4.81308 10.5586L6.45636 12.2019L6.05471 12.6035L6.04706 12.5959C6.00252 12.6692 5.9301 12.7227 5.84408 12.7418L4.31164 13.0835C4.28869 13.0886 4.26534 13.0911 4.24228 13.0911C4.15864 13.0911 4.07738 13.0582 4.01714 12.9978C3.93985 12.9208 3.90766 12.8096 3.93146 12.703L4.27299 11.171C4.29226 11.085 4.34587 11.0124 4.41908 10.968L4.41132 10.9602L10.898 4.47332C10.993 4.37841 11.1475 4.37841 11.2426 4.47361L12.5415 5.77224C12.6366 5.86732 12.6366 6.0218 12.5414 6.11688Z" fill="black"/>
</svg>
