<svg width="17" height="17" viewBox="0 0 17 17" fill="none" xmlns="http://www.w3.org/2000/svg">
<path d="M2.27705 10.4157C2.38022 10.5419 2.54733 10.5419 2.6505 10.4157L4.87344 7.69593C4.97661 7.56974 4.92801 7.46747 4.76506 7.46747H3.58474C3.42179 7.46747 3.31103 7.33695 3.34603 7.17782C3.95295 4.41384 6.41952 2.33852 9.36306 2.33852C12.7606 2.33852 15.5247 5.10263 15.5247 8.50016C15.5247 11.8978 12.7606 14.6618 9.36306 14.6618C8.9557 14.6618 8.62542 14.9921 8.62542 15.3994C8.62542 15.8068 8.9557 16.137 9.36306 16.137C13.5741 16.137 17 12.7112 17 8.50016C17 4.28914 13.5741 0.863281 9.36306 0.863281C5.60381 0.863281 2.47218 3.59421 1.84331 7.17608C1.81509 7.33659 1.66589 7.4675 1.50294 7.4675H0.162526C-0.000461482 7.4675 -0.0489302 7.56978 0.054114 7.69596L2.27705 10.4157Z" fill="#2196F3"/>
</svg>
