<?xml version="1.0" encoding="UTF-8"?>
<!DOCTYPE svg PUBLIC "-//W3C//DTD SVG 1.1//EN" "http://www.w3.org/Graphics/SVG/1.1/DTD/svg11.dtd">
<!-- Creator: CorelDRAW X6 -->
<svg xmlns="http://www.w3.org/2000/svg" xml:space="preserve" width="3.48866in" height="0.795957in" version="1.1" style="shape-rendering:geometricPrecision; text-rendering:geometricPrecision; image-rendering:optimizeQuality; fill-rule:evenodd; clip-rule:evenodd"
viewBox="0 0 5018 1145"
 xmlns:xlink="http://www.w3.org/1999/xlink">
 <defs>
  <style type="text/css">
   <![CDATA[
    .fil0 {fill:#FEFEFE;fill-rule:nonzero}
    .fil2 {fill:#072D64;fill-rule:nonzero}
    .fil1 {fill:#E0AD0F;fill-rule:nonzero}
   ]]>
  </style>
 </defs>
 <g id="Layer_x0020_1">
  <metadata id="CorelCorpID_0Corel-Layer"/>
  <path class="fil0" d="M477 89c-3,12 -10,18 -22,18l-226 0 -41 199 180 0c12,0 17,6 14,18l-9 45c-3,12 -10,18 -22,18l-180 0 -56 269c-3,12 -10,18 -21,18l-79 0c-13,0 -18,-6 -15,-18l127 -612c2,-12 10,-18 22,-18l323 0c12,0 17,6 15,18l-9 45z"/>
  <path class="fil0" d="M991 280c-2,6 -4,10 -6,12 -3,2 -6,3 -9,4 -4,0 -8,0 -12,-1 -4,-1 -8,-1 -12,-1 -58,0 -93,29 -105,87l-61 279c-3,12 -10,18 -21,18l-73 0c-13,0 -18,-6 -15,-18l70 -325c4,-19 4,-33 1,-41 -4,-8 -9,-12 -15,-12l-2 0c-12,0 -17,-6 -14,-18l8 -40c3,-12 10,-18 22,-18l5 0c38,0 64,5 79,14 14,9 22,22 22,39l2 0c20,-21 40,-36 61,-46 21,-9 47,-14 79,-14 6,0 10,1 12,2 2,1 2,5 1,12l-14 68z"/>
  <path class="fil0" d="M1351 291c-3,4 -6,6 -11,5 -4,-1 -9,-2 -13,-3 -15,-6 -31,-11 -47,-16 -16,-5 -34,-7 -54,-7 -27,0 -48,5 -62,16 -14,11 -24,25 -27,43 -2,10 -1,19 3,27 4,8 12,14 24,17l100 31c37,11 61,28 72,51 10,22 12,51 5,86 -5,25 -15,46 -29,64 -14,18 -31,33 -51,46 -20,12 -42,22 -66,27 -24,6 -49,9 -74,9 -19,0 -38,-1 -55,-4 -17,-2 -33,-6 -47,-10 -14,-4 -26,-8 -35,-14 -9,-5 -15,-11 -19,-17 -4,-8 -3,-16 3,-24l26 -29c3,-3 7,-5 12,-4 5,0 8,1 12,2 17,6 34,11 52,16 18,5 38,7 61,7 19,0 35,-2 47,-5 13,-4 23,-8 31,-14 8,-6 13,-12 17,-20 4,-7 7,-14 8,-21 3,-14 0,-24 -9,-32 -9,-8 -26,-16 -50,-24l-74 -23c-32,-10 -53,-27 -63,-51 -11,-24 -12,-50 -7,-80 5,-20 12,-39 23,-57 11,-18 25,-33 42,-46 17,-13 37,-23 60,-31 23,-7 48,-11 76,-11 39,0 72,5 99,14 27,10 44,19 52,30 1,2 2,4 3,8 1,4 -2,9 -8,15l-25 29z"/>
  <path class="fil0" d="M1689 207l-59 0 29 -143 -123 62 -16 81 -47 0c-12,0 -20,6 -22,18l-8 35c-3,12 2,18 14,18l48 0 -53 257c-10,48 -6,83 11,106 17,23 46,35 87,35l43 0c12,0 19,-6 21,-18l8 -40c3,-12 -2,-18 -14,-18l-15 0c-11,0 -19,-5 -27,-14 -7,-10 -9,-25 -4,-48l53 -259 59 0c12,0 20,-6 22,-18l8 -35c3,-12 -2,-18 -14,-18z"/>
  <path class="fil0" d="M652 121c-3,12 -10,18 -21,18l-73 0c-13,0 -18,-6 -15,-18l16 -72c3,-12 10,-18 22,-18l73 0c12,0 17,6 14,18l-15 72zm-92 430c-5,22 -5,38 -2,47 3,10 8,14 14,14l2 0c12,0 17,6 14,18l-8 39c-3,12 -10,18 -21,18l-5 0c-88,0 -122,-44 -104,-131l72 -329c2,-12 10,-18 22,-18l72 0c12,0 17,6 14,18l-70 323z"/>
  <path class="fil0" d="M2035 690c177,0 296,-137 296,-328 0,-193 -119,-333 -296,-333l-178 0c-20,0 -33,13 -33,33l0 595c0,20 13,34 33,34l178 0zm-143 -66l0 -530 143 0c139,0 226,112 226,268 0,154 -86,262 -226,262l-143 0zm573 32c0,20 14,34 34,34 20,0 34,-14 34,-34l0 -407c0,-20 -14,-34 -34,-34 -20,0 -34,14 -34,34l0 407zm0 -563c0,20 14,34 34,34 20,0 34,-14 34,-34l0 -35c0,-20 -14,-34 -34,-34 -20,0 -34,14 -34,34l0 35zm221 563c0,20 14,34 34,34 20,0 34,-14 34,-34l0 -186c0,-176 85,-196 125,-196 13,0 30,6 42,6 23,0 33,-13 33,-33 0,-34 -52,-39 -75,-39 -68,0 -116,52 -126,87l0 -48c0,-20 -13,-33 -33,-33 -20,0 -34,13 -34,33l0 408zm374 -164c192,-2 313,-30 313,-146 0,-61 -62,-138 -173,-138 -130,0 -213,97 -213,245 0,144 84,243 208,243 81,0 161,-41 165,-44 8,-5 16,-14 16,-29 0,-17 -14,-33 -32,-33 -4,0 -11,1 -17,4 -11,4 -74,36 -132,36 -78,0 -127,-63 -135,-138zm140 -218c69,0 103,42 103,72 0,56 -69,81 -246,84 7,-101 62,-156 143,-156zm641 380c9,-6 17,-17 17,-29 0,-21 -16,-34 -33,-34 -5,0 -12,1 -17,4 -37,21 -82,35 -122,35 -103,0 -147,-92 -147,-180 0,-100 71,-176 167,-176 32,0 66,10 94,30 6,4 12,5 19,5 19,0 33,-14 33,-33 0,-12 -5,-24 -14,-29 -38,-25 -85,-39 -131,-39 -133,0 -237,105 -237,242 0,147 88,246 217,246 54,0 110,-17 155,-42zm151 -140c0,159 85,182 169,182 35,0 67,-14 76,-20 9,-5 16,-15 16,-30 0,-21 -15,-33 -33,-33 -6,0 -11,2 -15,4 -7,4 -25,12 -47,12 -45,0 -98,-14 -98,-116l0 -234 121 0c20,0 34,-14 34,-34 0,-20 -14,-32 -34,-32l-121 0 0 -107c0,-20 -14,-34 -34,-34 -20,0 -34,14 -34,34l0 107 -51 0c-20,0 -34,12 -34,32 0,20 14,34 34,34l51 0 0 234z"/>
  <path class="fil0" d="M3457 1128c0,8 6,14 14,14 8,0 14,-6 14,-14l0 -118 91 0c8,0 14,-6 14,-14 0,-8 -6,-14 -14,-14l-91 0 0 -90 98 0c8,0 14,-6 14,-14 0,-8 -6,-13 -14,-13l-112 0c-8,0 -14,5 -14,13l0 250zm195 0c0,8 6,14 14,14 8,0 14,-6 14,-14l0 -171c0,-8 -6,-14 -14,-14 -8,0 -14,6 -14,14l0 171zm0 -236c0,8 6,14 14,14 8,0 14,-6 14,-14l0 -15c0,-8 -6,-14 -14,-14 -8,0 -14,6 -14,14l0 15zm93 236c0,8 6,14 14,14 8,0 14,-6 14,-14l0 -78c0,-74 36,-82 52,-82 6,0 12,3 18,3 9,0 14,-6 14,-14 0,-14 -22,-16 -31,-16 -28,0 -49,22 -53,37l0 -20c0,-8 -6,-14 -14,-14 -8,0 -14,6 -14,14l0 171zm278 -40c0,-65 -101,-56 -101,-94 0,-20 19,-26 38,-26 16,0 28,5 35,8 3,1 6,2 9,2 7,0 13,-5 13,-13 0,-6 -3,-10 -7,-12 -8,-5 -27,-12 -50,-12 -32,0 -67,16 -67,53 0,62 101,54 101,94 0,24 -20,29 -40,29 -24,0 -44,-12 -48,-15 -2,-1 -4,-2 -8,-2 -7,0 -14,6 -14,13 0,6 3,10 6,13 3,2 29,18 63,18 41,0 69,-26 69,-57zm56 -19c0,67 36,76 71,76 15,0 28,-6 32,-8 4,-2 7,-6 7,-13 0,-9 -6,-14 -14,-14 -3,0 -5,1 -6,2 -3,2 -10,5 -20,5 -19,0 -41,-6 -41,-49l0 -98 51 0c8,0 14,-6 14,-14 0,-8 -6,-13 -14,-13l-51 0 0 -45c0,-8 -6,-14 -14,-14 -8,0 -14,6 -14,14l0 45 -22 0c-8,0 -14,5 -14,13 0,8 6,14 14,14l22 0 0 98zm223 74c26,0 102,-2 102,-77 0,-36 -20,-59 -44,-67 5,-2 31,-25 31,-58 0,-74 -64,-75 -90,-75l-53 0c-8,0 -14,5 -14,13l0 250c0,8 6,14 14,14l52 0zm-38 -154l0 -96 37 0c19,0 62,1 62,47 0,33 -29,45 -37,49 -6,0 -11,0 -16,0l-45 0zm0 126l0 -99 49 0c41,0 61,16 61,49 0,48 -53,50 -72,50l-38 0zm300 -91l-34 0c-55,0 -84,20 -84,60 0,43 37,61 71,61 25,0 44,-9 54,-18 7,14 22,15 24,15 8,0 14,-5 14,-14 0,-7 -5,-12 -12,-15 -3,-1 -4,-4 -4,-16l0 -95c0,-26 -19,-61 -69,-61 -26,0 -52,9 -62,16 -5,3 -6,8 -6,11 0,7 5,14 14,14 4,0 6,-1 8,-2 9,-5 23,-11 46,-11 29,0 40,20 40,34l0 22zm0 79c-4,6 -25,15 -47,15 -20,0 -41,-11 -41,-34 0,-22 18,-33 54,-33l34 0 0 52zm213 25c0,8 6,14 14,14 8,0 14,-6 14,-14l0 -114c0,-52 -20,-73 -70,-73 -28,0 -47,12 -53,15 0,-7 -5,-12 -13,-12 -8,0 -13,6 -13,14l0 171c0,8 6,14 14,14 8,0 14,-6 14,-14l0 -148c5,-3 23,-12 45,-12 36,0 48,10 48,50l0 110zm239 -8c-33,-50 -66,-78 -84,-91l63 -62c3,-3 4,-7 4,-10 0,-7 -6,-14 -14,-14 -4,0 -7,1 -11,4l-71 71 -5 0 0 -159c0,-8 -6,-14 -14,-14 -9,0 -15,6 -15,14l0 268c0,8 6,14 15,14 8,0 14,-6 14,-14l0 -82 9 0c11,6 48,36 86,90 3,4 6,6 11,6 8,0 14,-6 14,-14 0,-3 -1,-6 -3,-8z"/>
  <g id="_700725744">
   <path class="fil1" d="M4668 0c193,0 350,157 350,350 0,193 -157,350 -350,350 -193,0 -350,-157 -350,-350 0,-193 157,-350 350,-350z"/>
   <path class="fil2" d="M4579 504c9,0 16,-6 16,-15 0,-9 -7,-15 -16,-15l-127 0c28,-65 142,-119 142,-195 0,-78 -62,-85 -89,-85 -37,0 -61,15 -72,23 -6,4 -9,9 -9,13 0,9 7,16 16,16 3,0 7,-1 9,-2 7,-5 30,-19 56,-19 22,0 56,8 56,55 0,62 -145,142 -145,211 0,9 7,15 16,15l147 0zm53 -13c0,9 7,16 16,16 9,0 16,-7 16,-16l0 -16c0,-9 -7,-16 -16,-16 -9,0 -16,7 -16,16l0 16zm178 16c69,0 110,-58 110,-155 0,-96 -43,-159 -110,-159 -68,0 -110,62 -110,159 0,98 42,155 110,155zm0 -31c-48,0 -77,-48 -77,-125 0,-77 30,-128 77,-128 50,0 78,56 78,128 0,77 -30,125 -78,125z"/>
  </g>
 </g>
</svg>
