<svg width="466" height="460" viewBox="0 0 466 460" fill="none" xmlns="http://www.w3.org/2000/svg">
<path d="M447.221 455.565C447.221 455.708 351.631 455.83 233.67 455.83C115.709 455.83 20.1194 455.708 20.1194 455.565C20.1194 455.423 115.709 455.301 233.67 455.301C351.631 455.301 447.221 455.413 447.221 455.565Z" fill="#263238"/>
<path d="M445.024 224.991C432.984 231.174 423.832 241.892 417.171 253.688C410.51 265.484 406.28 278.44 402.05 291.314L398.348 357.606C412.331 333.821 423.547 305.866 426.578 278.44L417.283 277.606C423.517 276.66 428.754 272.135 432.089 266.776C435.425 261.417 437.174 255.234 438.801 249.153L427.452 250.841C436.41 244.799 442.702 235.544 445.024 224.991Z" fill="#455A64"/>
<g opacity="0.3">
<path opacity="0.3" d="M445.024 224.991C432.984 231.174 423.832 241.892 417.171 253.688C410.51 265.484 406.28 278.44 402.05 291.314L398.348 357.606C412.331 333.821 423.547 305.866 426.578 278.44L417.283 277.606C423.517 276.66 428.754 272.135 432.089 266.776C435.425 261.417 437.174 255.234 438.801 249.153L427.452 250.841C436.41 244.799 442.702 235.544 445.024 224.991Z" fill="black"/>
</g>
<path d="M396.274 373.124C396.274 373.124 365.929 336.851 366.275 302.123H378.539C378.539 302.123 365.217 293.368 366.275 288.466C367.332 283.565 367.678 264.996 367.678 264.996L378.864 267.793C378.864 267.793 370.464 263.593 369.407 256.942C368.349 250.292 371.858 219.459 371.858 219.459C371.858 219.459 385.525 233.818 389.725 248.532C393.924 263.247 404.978 280.402 401.724 325.238C398.47 370.073 396.274 373.124 396.274 373.124Z" fill="#455A64"/>
<path d="M411.629 376.51C411.629 376.51 444.506 354.606 451.817 326.681L441.963 323.997C441.963 323.997 454.583 319.878 454.807 315.699C455.031 311.519 458.813 296.53 458.813 296.53L449.183 296.327C449.183 296.327 456.871 294.791 459.169 289.666C461.468 284.541 465.393 258.996 465.393 258.996C465.393 258.996 451.268 267.558 444.668 278.46C438.069 289.361 425.449 300.76 418.229 337.512C411.009 374.263 411.629 376.51 411.629 376.51Z" fill="#455A64"/>
<path d="M380.176 251.126C380.22 251.252 380.254 251.381 380.278 251.512C380.349 251.787 380.43 252.153 380.542 252.631C380.766 253.648 381.091 255.092 381.498 256.933C381.905 258.773 382.413 261.102 382.942 263.776C383.471 266.451 384.111 269.481 384.721 272.857C386.023 279.589 387.386 287.643 388.789 296.602C390.192 305.561 391.525 315.445 392.735 325.838C393.945 336.231 394.85 346.176 395.562 355.217C396.274 364.257 396.741 372.413 397.016 379.267C397.179 382.693 397.26 385.795 397.351 388.52C397.443 391.246 397.494 393.605 397.514 395.507C397.535 397.408 397.514 398.883 397.514 399.92V401.069C397.525 401.198 397.525 401.327 397.514 401.455C397.503 401.327 397.503 401.198 397.514 401.069C397.514 400.784 397.514 400.408 397.463 399.92C397.463 398.903 397.382 397.398 397.311 395.507C397.24 393.615 397.189 391.246 397.067 388.531C396.945 385.815 396.843 382.704 396.65 379.287C396.324 372.433 395.785 364.287 395.084 355.257C394.382 346.227 393.406 336.302 392.226 325.899C391.047 315.496 389.653 305.642 388.321 296.683C386.989 287.724 385.606 279.671 384.355 272.928C383.766 269.552 383.155 266.512 382.647 263.837C382.139 261.163 381.691 258.854 381.305 256.983C380.918 255.112 380.644 253.668 380.44 252.651L380.227 251.523C380.198 251.392 380.181 251.259 380.176 251.126Z" fill="#263238"/>
<path d="M392.064 395.364C392.064 395.364 364.292 363.84 355.669 344.804L362.177 342.028C357.458 342.8 352.628 340.777 348.957 337.695C345.286 334.614 342.612 330.577 339.978 326.571L348.55 325.126C340.675 322.873 333.969 317.677 329.819 310.615C339.937 312.273 349.089 317.835 356.635 324.781C362.736 330.404 367.922 336.984 372.905 343.614C375.335 346.863 377.449 350.336 379.22 353.986C383.878 363.637 392.084 383.792 392.064 395.364Z" fill="#455A64"/>
<path d="M452.305 277.351C452.271 277.46 452.226 277.566 452.173 277.667L451.746 278.582C451.339 279.416 450.78 280.616 450.048 282.08C448.563 285.131 446.448 289.503 443.895 294.964C441.343 300.425 438.384 306.964 435.221 314.285C432.059 321.607 428.733 329.712 425.408 338.284C422.083 346.857 419.124 355.114 416.52 362.69C413.917 370.266 411.72 377.059 409.941 382.825C408.161 388.591 406.758 393.258 405.873 396.492C405.405 398.089 405.039 399.34 404.775 400.224C404.653 400.621 404.551 400.936 404.48 401.18C404.456 401.294 404.414 401.404 404.358 401.506C404.365 401.392 404.386 401.279 404.419 401.17C404.49 400.926 404.572 400.601 404.673 400.153C404.907 399.258 405.243 398.007 405.69 396.401C406.565 393.136 407.907 388.448 409.646 382.672C411.385 376.896 413.561 370.053 416.124 362.497C418.686 354.941 421.666 346.694 424.971 338.091C428.276 329.488 431.662 321.404 434.835 314.082C438.008 306.76 441.007 300.242 443.621 294.761C446.234 289.28 448.38 284.948 449.926 281.948L451.715 278.5L452.183 277.606C452.214 277.443 452.305 277.341 452.305 277.351Z" fill="#263238"/>
<path d="M394.423 408.868C394.356 408.68 394.312 408.486 394.291 408.288C394.22 407.851 394.139 407.271 394.027 406.62C393.915 405.969 393.783 405.003 393.6 403.976C393.417 402.949 393.234 401.77 392.949 400.488C392.451 397.905 391.739 394.865 390.834 391.509C389.929 388.153 388.739 384.523 387.336 380.77C385.932 377.018 384.366 373.53 382.861 370.408C381.356 367.286 379.81 364.53 378.519 362.273C377.878 361.124 377.238 360.127 376.699 359.222C376.16 358.317 375.682 357.575 375.275 356.954C374.868 356.334 374.614 355.937 374.37 355.521C374.255 355.359 374.16 355.185 374.085 355.002C374.224 355.143 374.35 355.296 374.461 355.46L375.478 356.843C375.905 357.443 376.424 358.185 376.983 359.07C377.543 359.954 378.214 360.941 378.875 362.12C380.248 364.368 381.773 367.113 383.329 370.256C384.885 373.398 386.43 376.896 387.864 380.659C389.298 384.421 390.417 388.092 391.332 391.448C392.247 394.804 392.898 397.895 393.366 400.488C393.63 401.78 393.783 402.959 393.935 403.997C394.088 405.034 394.21 405.929 394.281 406.661C394.352 407.393 394.403 407.901 394.454 408.349C394.463 408.522 394.453 408.696 394.423 408.868Z" fill="#263238"/>
<path d="M431.062 401.455H370.282V413.851H431.062V401.455Z" fill="#4A90E2"/>
<path d="M376.078 413.861L382.647 455.565H419.378L425.51 413.861H376.078Z" fill="#4A90E2"/>
<path d="M427.34 413.861C427.34 414.003 415.839 414.125 401.663 414.125C387.487 414.125 375.976 414.003 375.976 413.861C375.976 413.719 387.477 413.597 401.663 413.597C415.849 413.597 427.34 413.709 427.34 413.861Z" fill="#263238"/>
<path d="M136.047 97.7964C137.064 92.8441 140.552 90.2001 145.199 88.2477C147.552 87.2963 150.098 86.9253 152.624 87.166C155.15 87.4067 157.581 88.2521 159.711 89.6307C162.538 91.5018 164.795 94.3288 168.1 95.2236C173.47 96.7083 179.368 92.3661 184.554 94.3898C186.102 94.9975 187.392 96.1231 188.203 97.5751C189.015 99.027 189.297 100.715 189.004 102.352C188.71 103.99 187.857 105.474 186.592 106.553C185.326 107.632 183.725 108.239 182.062 108.271C185.581 109.287 186.964 114.118 185.164 117.301C183.364 120.484 179.327 121.907 175.697 121.48C172.066 121.053 168.792 119.08 165.924 116.813C163.056 114.545 160.433 111.962 157.382 109.938C154.331 107.915 150.711 106.471 147.081 106.888C142.169 107.477 138.173 111.474 136.271 116.04C134.369 120.606 134.237 125.69 134.237 130.643C134.237 135.595 134.532 140.608 133.383 145.428C133.356 145.718 133.261 145.997 133.105 146.243C132.95 146.488 132.738 146.694 132.488 146.842C131.705 147.137 130.963 146.333 130.515 145.622C125.46 137.553 122.04 128.569 120.448 119.182C119.533 113.752 119.329 108.565 122.034 103.776C124.739 98.9862 132.102 95.0813 136.017 97.7354" fill="#263238"/>
<path d="M127.983 121.318L129 171.868C129.194 181.305 133.932 191.067 148.84 190.081C161.714 188.25 162.06 179.22 161.989 168.024C161.989 168.024 176.093 166.407 176.826 152.404C177.171 145.632 176.765 131.639 176.256 118.979C175.988 112.419 173.26 106.201 168.615 101.562C163.97 96.9231 157.749 94.2027 151.189 93.9424H149.837C135.244 94.1661 127.312 106.725 127.983 121.318Z" fill="#FFBE9D"/>
<path d="M162.009 168.044C155.54 167.773 149.283 165.656 143.979 161.942C143.979 161.942 147.955 172.986 161.989 172.284L162.009 168.044Z" fill="#EB996E"/>
<path d="M171.314 133.054C171.29 133.577 171.065 134.071 170.686 134.433C170.308 134.795 169.804 134.996 169.28 134.996C169.025 135.007 168.771 134.966 168.532 134.877C168.293 134.788 168.074 134.651 167.889 134.475C167.704 134.3 167.557 134.089 167.455 133.855C167.353 133.621 167.299 133.37 167.297 133.115C167.32 132.591 167.545 132.097 167.924 131.735C168.303 131.373 168.807 131.172 169.331 131.172C169.585 131.163 169.839 131.204 170.077 131.294C170.315 131.384 170.533 131.521 170.718 131.696C170.902 131.871 171.05 132.081 171.153 132.315C171.255 132.548 171.31 132.799 171.314 133.054Z" fill="#263238"/>
<path d="M172.991 125.731C172.737 125.985 171.263 124.795 169.107 124.714C166.951 124.632 165.334 125.649 165.11 125.375C164.998 125.253 165.273 124.795 165.975 124.358C166.931 123.747 168.054 123.448 169.188 123.504C170.298 123.551 171.365 123.946 172.239 124.632C172.91 125.141 173.113 125.619 172.991 125.731Z" fill="#263238"/>
<path d="M151.362 132.178C151.338 132.702 151.114 133.196 150.735 133.557C150.356 133.919 149.852 134.121 149.328 134.12C149.07 134.137 148.81 134.101 148.566 134.014C148.322 133.927 148.098 133.792 147.908 133.616C147.718 133.44 147.565 133.227 147.46 132.991C147.354 132.754 147.298 132.498 147.294 132.239C147.318 131.716 147.543 131.222 147.921 130.86C148.3 130.498 148.804 130.296 149.328 130.297C149.587 130.28 149.846 130.316 150.09 130.403C150.334 130.49 150.558 130.625 150.749 130.801C150.939 130.977 151.091 131.19 151.197 131.427C151.302 131.663 151.358 131.919 151.362 132.178Z" fill="#263238"/>
<path d="M151.809 125.334C151.555 125.588 150.081 124.408 147.925 124.317C145.769 124.225 144.152 125.252 143.928 124.978C143.705 124.703 144.091 124.398 144.803 123.961C145.757 123.352 146.876 123.054 148.006 123.107C149.116 123.154 150.183 123.549 151.057 124.235C151.728 124.693 151.931 125.171 151.809 125.334Z" fill="#263238"/>
<path d="M158.989 141.605C160.137 141.299 161.319 141.135 162.507 141.117C163.057 141.117 163.585 140.995 163.697 140.619C163.764 140.054 163.658 139.483 163.392 138.981C162.924 137.629 162.446 136.215 161.928 134.731C159.894 128.629 158.47 123.707 158.714 123.626C158.958 123.545 160.799 128.385 162.782 134.446C163.26 135.931 163.728 137.354 164.165 138.717C164.487 139.392 164.559 140.16 164.368 140.883C164.281 141.074 164.152 141.244 163.99 141.377C163.828 141.511 163.637 141.607 163.433 141.656C163.122 141.723 162.805 141.754 162.487 141.747C161.32 141.849 160.144 141.801 158.989 141.605Z" fill="#263238"/>
<path d="M152.704 116.874C152.47 117.443 150.325 117.087 147.793 117.29C145.261 117.494 143.176 118.094 142.871 117.565C142.729 117.301 143.105 116.762 143.949 116.233C145.072 115.568 146.337 115.182 147.64 115.104C148.937 115.003 150.24 115.209 151.443 115.704C152.318 116.121 152.806 116.599 152.704 116.874Z" fill="#263238"/>
<path d="M172.453 119.467C172.046 119.945 170.592 119.376 168.802 119.284C167.012 119.193 165.497 119.477 165.172 118.948C165.029 118.694 165.284 118.216 165.965 117.779C166.865 117.243 167.911 117.005 168.955 117.098C170.004 117.157 171.01 117.541 171.833 118.196C172.443 118.725 172.656 119.233 172.453 119.467Z" fill="#263238"/>
<path d="M128.715 131.74C128.482 131.628 119.197 128.506 119.126 138.106C119.055 147.706 128.695 145.794 128.715 145.519C128.736 145.245 128.715 131.74 128.715 131.74Z" fill="#FFBE9D"/>
<path d="M125.807 141.859C125.807 141.859 125.645 141.981 125.36 142.103C124.958 142.26 124.511 142.26 124.109 142.103C123.092 141.717 122.258 140.069 122.228 138.371C122.209 137.548 122.376 136.731 122.716 135.981C122.809 135.684 122.972 135.413 123.191 135.192C123.411 134.971 123.68 134.805 123.977 134.71C124.174 134.653 124.386 134.668 124.573 134.754C124.759 134.84 124.909 134.991 124.994 135.178C125.116 135.452 125.055 135.636 125.106 135.656C125.157 135.676 125.319 135.493 125.238 135.097C125.191 134.854 125.057 134.637 124.862 134.486C124.598 134.285 124.266 134.194 123.936 134.232C123.542 134.308 123.173 134.483 122.865 134.741C122.557 134.999 122.32 135.331 122.177 135.707C121.761 136.536 121.555 137.454 121.577 138.381C121.628 140.313 122.594 142.123 123.987 142.54C124.243 142.617 124.514 142.635 124.778 142.592C125.042 142.55 125.293 142.449 125.512 142.296C125.787 142.093 125.879 141.879 125.807 141.859Z" fill="#EB996E"/>
<path d="M176.967 105.932C175.708 103.163 173.779 100.751 171.354 98.915C166.304 94.7183 160.059 92.2204 153.507 91.7763C146.924 91.3601 140.438 93.5188 135.417 97.7964C131.544 101.337 128.791 105.932 127.495 111.016C126.232 116.098 125.99 121.379 126.783 126.555C127.098 128.822 127.617 131.181 129.132 132.9C130.078 133.978 131.756 134.72 132.915 133.917C133.55 133.352 133.977 132.588 134.125 131.751C136.261 124.429 138.396 116.558 135.976 109.328C137.83 106.942 140.161 104.968 142.82 103.532C144.148 102.816 145.605 102.372 147.107 102.227C148.609 102.082 150.125 102.239 151.565 102.688C155.785 104.172 158.246 108.433 161.541 111.453C163.924 113.595 166.782 115.141 169.88 115.963C172.977 116.785 176.225 116.86 179.357 116.182L176.967 105.932Z" fill="#263238"/>
<path d="M160.046 147.564C159.827 148.441 159.485 149.284 159.029 150.065C158.788 150.452 158.468 150.784 158.089 151.038C157.711 151.292 157.282 151.463 156.833 151.54C156.348 151.572 155.863 151.481 155.423 151.277C154.982 151.073 154.6 150.761 154.311 150.37C153.745 149.575 153.443 148.621 153.447 147.645C153.447 146.77 153.762 145.703 154.626 145.55C154.99 145.507 155.359 145.563 155.694 145.713L160.372 147.259" fill="#EB996E"/>
<path d="M158.47 151.438C157.651 151.547 156.819 151.499 156.019 151.296C155.204 151.037 154.512 150.486 154.077 149.75C153.828 149.299 153.676 148.8 153.632 148.287C153.589 147.774 153.653 147.257 153.823 146.77C153.909 146.523 154.025 146.288 154.168 146.069C154.341 145.865 154.3 145.875 154.504 145.886C154.707 145.896 155.002 146.048 155.256 146.13L156.019 146.384C157.036 146.709 157.931 147.004 158.694 147.228C159.503 147.551 160.357 147.75 161.226 147.818C160.511 147.32 159.721 146.939 158.887 146.689C158.144 146.384 157.26 146.048 156.273 145.672L155.511 145.397C155.236 145.306 155.022 145.194 154.656 145.103C154.431 145.049 154.194 145.074 153.985 145.174C153.792 145.272 153.627 145.419 153.507 145.601C153.317 145.878 153.163 146.179 153.05 146.496C152.84 147.093 152.765 147.729 152.83 148.358C152.895 148.988 153.099 149.595 153.426 150.136C153.98 151.01 154.857 151.628 155.867 151.855C156.52 152.015 157.205 151.997 157.849 151.804C158.297 151.651 158.49 151.479 158.47 151.438Z" fill="#263238"/>
<path d="M187.421 96.7589C187.479 96.968 187.513 97.1829 187.523 97.3996C187.544 98.0298 187.475 98.6597 187.32 99.2707C187 100.39 186.462 101.434 185.735 102.344C185.009 103.253 184.11 104.009 183.089 104.569C180.517 106.084 176.744 106.308 173.052 105.199C169.361 104.091 165.741 101.762 161.978 99.5453C158.216 97.3284 154.27 95.6505 150.497 95.8031C147.156 95.9694 143.965 97.2431 141.427 99.4232C139.693 100.86 138.215 102.579 137.054 104.508C136.24 105.891 135.905 106.725 135.854 106.694C135.895 106.483 135.964 106.278 136.057 106.084C136.285 105.503 136.547 104.936 136.84 104.386C137.944 102.367 139.401 100.562 141.142 99.0572C143.732 96.7531 147.026 95.3946 150.487 95.2031C154.423 95.0099 158.511 96.7589 162.283 98.9758C166.056 101.193 169.585 103.562 173.215 104.62C176.846 105.677 180.405 105.545 182.876 104.152C184.873 103.1 186.382 101.313 187.086 99.169C187.3 98.3833 187.413 97.5733 187.421 96.7589Z" fill="#455A64"/>
<path d="M121.546 116.72C121.623 115.829 121.876 114.961 122.289 114.168C123.144 112.187 124.385 110.397 125.939 108.9C126.794 108.077 127.735 107.347 128.746 106.724C129.571 106.156 130.526 105.806 131.522 105.707C132.203 105.659 132.882 105.834 133.454 106.205C133.851 106.48 133.973 106.724 133.942 106.744C133.239 106.275 132.395 106.063 131.553 106.144C130.027 106.307 128.136 107.67 126.377 109.317C124.879 110.774 123.632 112.468 122.685 114.33C121.943 115.785 121.648 116.751 121.546 116.72Z" fill="#455A64"/>
<path d="M122.899 125.222C123.036 124.336 123.34 123.484 123.794 122.711C124.782 120.791 126.112 119.068 127.719 117.626C129.337 116.174 131.204 115.027 133.231 114.24C134.049 113.872 134.928 113.659 135.824 113.609C135.032 113.99 134.22 114.329 133.393 114.626C131.48 115.51 129.709 116.671 128.136 118.074C126.581 119.49 125.248 121.132 124.18 122.945C123.367 124.317 122.99 125.263 122.899 125.222Z" fill="#455A64"/>
<path d="M193.442 263.735L244.46 284.287L236.325 298.859L178.473 289.982L193.442 263.735Z" fill="#FFBE9D"/>
<path d="M193.543 204.358C193.807 218.707 193.34 253.282 193.34 253.282L201.475 266.135L187.167 285.457L170.632 287.785L168.995 300.609C168.995 300.609 140.023 313.574 116.848 305.693C98.818 299.592 77.7476 320.143 77.7476 320.143C77.7476 320.143 75.8155 316.788 78.9476 287.785C81.9271 260.136 87.0828 214.507 87.0828 214.507L103.75 172.814L128.929 168.451C139.413 186.267 160.371 186.369 162.059 175.57L178.706 182.495C183.088 184.244 186.846 187.264 189.499 191.165C192.151 195.066 193.577 199.671 193.594 204.389L193.543 204.358Z" fill="#4A90E2"/>
<path d="M179.114 208.721C179.256 208.721 177.497 225.205 175.188 245.492C172.88 265.779 170.877 282.223 170.734 282.202C170.592 282.182 172.341 265.729 174.659 245.431C176.978 225.134 178.971 208.721 179.114 208.721Z" fill="#263238"/>
<path d="M170.856 245.889C170.938 246.011 162.721 251.411 152.552 257.949C142.383 264.488 134.125 269.735 134.014 269.562C133.902 269.39 142.149 264.041 152.318 257.502C162.487 250.963 170.775 245.767 170.856 245.889Z" fill="#263238"/>
<path d="M141.6 455.565H131.98L126.489 390.92H141.6V455.565Z" fill="#263238"/>
<path d="M66.704 455.565H57.0942L51.6029 390.92H66.704V455.565Z" fill="#263238"/>
<path d="M247.846 455.565H238.236L232.745 390.92H247.846V455.565Z" fill="#263238"/>
<path d="M93.0627 333.312L102.215 193.162H15.7777C14.2342 193.163 12.7099 193.504 11.3128 194.16C9.91566 194.816 8.67989 195.771 7.69305 196.958C6.7062 198.144 5.99244 199.534 5.60234 201.027C5.21224 202.52 5.15535 204.081 5.43571 205.599L40.2241 393.33C51.2881 393.178 252.91 393.33 252.91 393.33V333.333L93.0627 333.312Z" fill="#455A64"/>
<path d="M221.275 372.677C221.275 372.829 202.116 372.941 178.493 372.941C154.87 372.941 135.712 372.829 135.712 372.677C135.712 372.524 154.86 372.412 178.493 372.412C202.126 372.412 221.275 372.534 221.275 372.677Z" fill="#263238"/>
<path d="M297.807 405.289L304.02 434.962C304.02 434.962 336.277 438.603 337.955 443.972L280.855 458.097L269.263 412.265L297.807 405.289Z" fill="#4A90E2"/>
<path d="M285.756 436.854C285.252 437.158 284.876 437.636 284.7 438.198C284.524 438.76 284.56 439.367 284.801 439.905C285.079 440.436 285.552 440.839 286.121 441.028C286.69 441.218 287.31 441.18 287.851 440.922C288.394 440.602 288.798 440.092 288.986 439.49C289.174 438.889 289.132 438.24 288.868 437.668C288.517 437.157 287.982 436.803 287.375 436.68C286.768 436.556 286.136 436.674 285.614 437.007" fill="#E0E0E0"/>
<path d="M281.12 459.317L279.991 454.873L334.985 441.653C334.985 441.653 337.802 442.131 337.955 443.992L281.12 459.317Z" fill="#E0E0E0"/>
<path d="M304.854 434.474C304.915 434.749 303.553 435.227 302.403 436.457C301.254 437.688 300.817 439.051 300.532 439C300.248 438.949 300.268 437.24 301.681 435.766C303.095 434.291 304.854 434.169 304.854 434.474Z" fill="#263238"/>
<path d="M311.484 435.43C311.606 435.684 310.518 436.447 309.867 437.87C309.216 439.294 309.247 440.606 308.962 440.657C308.677 440.708 308.118 439.182 308.962 437.443C309.806 435.704 311.403 435.165 311.484 435.43Z" fill="#263238"/>
<path d="M316.65 441.766C316.416 441.878 315.633 440.586 316.019 438.878C316.406 437.17 317.514 436.244 317.687 436.448C317.86 436.651 317.26 437.668 317.006 439.071C316.752 440.475 316.925 441.664 316.65 441.766Z" fill="#263238"/>
<path d="M302.709 427.834C302.658 428.119 301.285 428.048 299.729 428.546C298.173 429.044 297.075 429.848 296.872 429.644C296.668 429.441 297.604 428.149 299.434 427.61C301.265 427.071 302.82 427.58 302.709 427.834Z" fill="#263238"/>
<g opacity="0.3">
<path opacity="0.3" d="M297.807 405.289L304.02 434.962C304.02 434.962 336.277 438.603 337.955 443.972L281.12 459.317L269.263 412.265L297.807 405.289Z" fill="black"/>
</g>
<path d="M267.462 315.822L303.613 420.756L272.394 432.298L214.878 317.276L119.289 302.327L176.724 286.891L258.524 307.564C260.582 308.09 262.477 309.121 264.038 310.562C265.598 312.004 266.775 313.811 267.462 315.822Z" fill="#263238"/>
<path d="M296.811 393.635L317.454 416.302C317.454 416.302 347.422 402.95 351.632 406.753L309.125 448.355L275.516 414.349L296.811 393.635Z" fill="#4A90E2"/>
<path d="M302.495 427.356C302.21 427.88 302.128 428.492 302.265 429.073C302.401 429.655 302.748 430.166 303.237 430.508C303.75 430.815 304.361 430.914 304.944 430.783C305.526 430.652 306.037 430.303 306.369 429.806C306.672 429.251 306.759 428.602 306.613 427.986C306.466 427.371 306.097 426.831 305.576 426.471C304.498 425.942 302.749 426.42 302.393 427.559" fill="#E0E0E0"/>
<path d="M309.939 449.281L306.685 445.986L347.829 406.235C347.829 406.235 350.524 405.219 351.622 406.754L309.939 449.281Z" fill="#E0E0E0"/>
<path d="M317.922 415.407C318.125 415.631 317.179 416.739 316.813 418.407C316.447 420.074 316.752 421.457 316.478 421.58C316.203 421.702 315.339 420.186 315.827 418.173C316.315 416.159 317.789 415.153 317.922 415.407Z" fill="#263238"/>
<path d="M324.175 412.895C324.419 413.048 323.86 414.278 324.013 415.844C324.165 417.41 324.877 418.549 324.663 418.742C324.45 418.936 323.158 417.888 323.006 415.936C322.853 413.983 323.992 412.702 324.175 412.895Z" fill="#263238"/>
<path d="M331.945 415.753C331.802 415.977 330.501 415.224 329.911 413.567C329.321 411.909 329.911 410.516 330.114 410.597C330.318 410.678 330.368 411.878 330.857 413.231C331.345 414.583 332.138 415.529 331.945 415.753Z" fill="#263238"/>
<path d="M312.644 410.77C312.745 411.044 311.515 411.685 310.417 412.915C309.318 414.146 308.769 415.407 308.484 415.336C308.2 415.264 308.362 413.658 309.674 412.234C310.986 410.81 312.593 410.505 312.644 410.77Z" fill="#263238"/>
<path d="M109.028 346.532L192.354 346.186L284.831 432.298L313.579 405.523C313.579 405.523 235.054 316.909 225.983 307.767C216.912 298.625 129.499 292.514 129.499 292.514L76.9448 315.364L78.1448 321.323C79.5677 328.455 83.4272 334.871 89.0617 339.471C94.6963 344.07 101.755 346.566 109.028 346.532Z" fill="#263238"/>
<path d="M190.411 335.233C190.881 336.893 191.181 338.597 191.306 340.318C191.607 342.016 191.729 343.74 191.672 345.463C191.207 343.802 190.907 342.099 190.777 340.379C190.483 338.68 190.36 336.957 190.411 335.233Z" fill="#455A64"/>
<path d="M303.979 394.815C303.672 395.245 303.332 395.649 302.962 396.026C302.271 396.778 301.254 397.856 299.983 399.168C297.441 401.802 293.881 405.381 289.814 409.235C285.746 413.089 282.035 416.486 279.279 418.906C277.906 420.116 276.787 421.082 275.994 421.733C275.607 422.107 275.188 422.447 274.743 422.75C275.08 422.339 275.454 421.961 275.862 421.621C276.675 420.858 277.743 419.862 279.035 418.672C281.719 416.181 285.411 412.744 289.448 408.9C293.485 405.056 297.095 401.507 299.698 398.944L302.8 395.893C303.157 395.496 303.552 395.135 303.979 394.815Z" fill="#455A64"/>
<path d="M254.233 403.805C254.233 403.805 254.426 403.957 254.782 404.283L256.368 405.727L262.47 411.34L284.964 432.166H284.709L313.417 405.35V405.686C301.305 391.551 286.794 376.084 271.591 359.63C264.869 352.37 258.371 345.261 252.046 338.346C245.721 331.431 239.843 324.699 234.342 318.069C231.813 314.765 228.917 311.759 225.708 309.11C224.149 307.902 222.44 306.9 220.624 306.131C218.841 305.401 216.997 304.832 215.112 304.432C211.4 303.639 207.74 303.172 204.241 302.602L194.184 301.036L163.84 296.287L155.593 294.965L153.457 294.609C152.969 294.528 152.725 294.467 152.725 294.467C152.725 294.467 152.979 294.467 153.457 294.558L155.613 294.863L163.87 296.084L194.245 300.67L204.313 302.195C207.801 302.755 211.431 303.212 215.204 304.005C217.116 304.405 218.988 304.977 220.797 305.714C222.671 306.493 224.432 307.519 226.034 308.765C229.278 311.427 232.205 314.454 234.759 317.784C240.22 324.384 246.209 331.106 252.473 338.021C258.737 344.936 265.195 352.003 271.957 359.274C287.211 375.728 301.661 391.205 313.762 405.371L313.915 405.544L313.742 405.706C302.922 415.753 293.139 424.834 284.964 432.441L284.831 432.553L284.709 432.441L262.337 411.482L256.307 405.808C255.636 405.157 255.117 404.669 254.751 404.323C254.385 403.978 254.233 403.805 254.233 403.805Z" fill="#455A64"/>
<path d="M181.096 279.905L155.958 288.376L109.679 269.553L84.9678 292.525L150.985 304.372C153.216 304.738 155.501 304.574 157.656 303.894L177.12 297.792C177.12 297.792 183.476 304.982 184.808 305.083C186.14 305.185 188.814 305.012 187.533 302.633C186.158 300.372 184.64 298.202 182.988 296.135C182.988 296.135 191.926 303.507 192.943 302.521C193.96 301.534 193.553 299.246 191.926 297.385C190.299 295.525 185.082 289.494 185.082 289.494C185.082 289.494 196.095 298.646 197.143 297.233C198.19 295.819 198.709 293.664 194.296 289.433C191.397 286.657 186.943 282.691 184.594 280.627C184.125 280.212 183.555 279.927 182.941 279.8C182.328 279.673 181.691 279.709 181.096 279.905Z" fill="#FFBE9D"/>
<path d="M155.277 288.609C154.586 289.682 153.781 290.678 152.877 291.579C152.113 292.59 151.244 293.517 150.284 294.345C150.842 293.187 151.596 292.135 152.511 291.233C153.282 290.211 154.216 289.325 155.277 288.609Z" fill="#EB996E"/>
<path d="M192.354 297.863C191.542 297.253 190.829 296.523 190.239 295.697C189.018 294.273 187.412 292.249 185.602 290.063C183.791 287.877 182.195 285.589 180.181 285.995C179.463 286.025 178.764 286.235 178.148 286.605C177.933 286.768 177.709 286.917 177.476 287.053C177.476 287.053 177.609 286.768 178.036 286.433C178.649 285.973 179.378 285.692 180.141 285.619C180.673 285.57 181.21 285.614 181.727 285.751C182.03 285.83 182.317 285.965 182.571 286.148C182.795 286.341 183.059 286.534 183.273 286.758C184.239 287.701 185.149 288.699 185.998 289.748C187.818 291.944 189.384 293.998 190.513 295.483L191.876 297.191C192.191 297.619 192.384 297.832 192.354 297.863Z" fill="#EB996E"/>
<path d="M174.517 291.416C174.517 291.416 174.669 291.162 175.107 290.887C175.722 290.525 176.426 290.341 177.14 290.359C177.653 290.359 178.161 290.459 178.635 290.653C179.167 290.916 179.625 291.308 179.967 291.792C180.344 292.27 180.659 292.809 180.984 293.328C181.31 293.847 181.757 294.345 182.154 294.894C185.428 299.195 187.859 302.877 187.645 303.029C187.645 303.029 187.452 302.816 187.157 302.419L185.906 300.751L181.808 295.209C181.411 294.66 181.005 294.192 180.628 293.613C180.252 293.033 179.967 292.545 179.612 292.087C179.32 291.665 178.934 291.316 178.483 291.07C178.063 290.89 177.616 290.784 177.161 290.755C176.233 290.704 175.311 290.934 174.517 291.416Z" fill="#EB996E"/>
<path d="M194.967 290.073C194.238 289.603 193.557 289.061 192.933 288.457C191.723 287.44 190.066 285.935 188.266 284.287L185.734 281.948C185.114 281.271 184.381 280.706 183.568 280.281C182.796 279.936 181.944 279.812 181.107 279.925C181.107 279.925 181.32 279.752 181.778 279.681C182.433 279.596 183.099 279.684 183.71 279.935C184.132 280.106 184.532 280.328 184.9 280.596C185.296 280.891 185.663 281.226 186.059 281.613L188.622 283.921C190.422 285.579 192.039 287.094 193.188 288.213C193.847 288.766 194.444 289.39 194.967 290.073Z" fill="#EB996E"/>
<path d="M82.6292 293.124C82.6292 293.124 73.233 282.568 73.8228 268.494C74.4126 254.42 78.4497 213.683 80.2496 202.507C82.0496 191.331 90.4187 176.068 103.842 172.752C113.675 170.363 115.709 199.985 115.709 199.985L108.316 265.383L123.061 273.945L109.303 297.252L82.6292 293.124Z" fill="#4A90E2"/>
<path d="M114.387 196.722C114.286 196.722 114.164 195.298 113.543 193.071C113.179 191.769 112.713 190.497 112.15 189.268C111.437 187.777 110.6 186.348 109.648 184.997C108.667 183.67 107.572 182.431 106.374 181.295C105.386 180.371 104.325 179.527 103.201 178.773C101.279 177.492 99.9472 176.923 99.9878 176.831C100.319 176.902 100.641 177.015 100.944 177.167C101.318 177.313 101.682 177.487 102.032 177.685C102.503 177.917 102.962 178.176 103.405 178.458C104.576 179.18 105.679 180.007 106.699 180.929C107.946 182.069 109.077 183.329 110.076 184.692C111.053 186.064 111.894 187.529 112.587 189.064C113.147 190.323 113.59 191.63 113.909 192.969C114.04 193.482 114.141 194.001 114.214 194.525C114.292 194.915 114.343 195.309 114.367 195.705C114.425 196.041 114.432 196.384 114.387 196.722Z" fill="#263238"/>
<path d="M108.235 265.434C107.491 265.938 106.713 266.39 105.906 266.786C104.029 267.851 102.216 269.026 100.476 270.305C98.7522 271.605 97.1023 273 95.5338 274.484C94.9 275.135 94.2204 275.74 93.5 276.294C93.9906 275.533 94.571 274.833 95.2287 274.21C96.737 272.633 98.373 271.184 100.12 269.878C101.871 268.573 103.736 267.43 105.693 266.461C106.491 266.007 107.346 265.661 108.235 265.434Z" fill="#263238"/>
<path d="M205.858 250.526L189.679 309.263H265.195L283.601 253.333C283.767 252.825 283.811 252.285 283.73 251.757C283.648 251.229 283.444 250.728 283.133 250.293C282.822 249.858 282.414 249.503 281.94 249.256C281.467 249.008 280.942 248.876 280.408 248.869L209.163 248.055C208.417 248.045 207.688 248.282 207.091 248.729C206.493 249.176 206.06 249.808 205.858 250.526Z" fill="#E0E0E0"/>
<path d="M210.749 248.044C210.891 248.044 207.231 261.813 202.563 278.724C197.895 295.635 194.011 309.303 193.868 309.231C193.726 309.16 197.397 295.452 202.004 278.551C206.61 261.65 210.607 248.003 210.749 248.044Z" fill="#263238"/>
<path d="M239.934 277.728C239.743 278.311 239.724 278.937 239.88 279.53C240.035 280.123 240.358 280.66 240.81 281.074C241.262 281.489 241.823 281.765 242.428 281.869C243.032 281.973 243.654 281.9 244.219 281.66C244.783 281.42 245.266 281.023 245.611 280.515C245.955 280.008 246.146 279.412 246.161 278.798C246.176 278.185 246.013 277.581 245.694 277.057C245.374 276.534 244.91 276.114 244.358 275.847C243.521 275.517 242.589 275.53 241.761 275.882C240.933 276.234 240.277 276.897 239.934 277.728Z" fill="white"/>
<path d="M189.679 309.262H139.149C139.149 308.116 139.604 307.017 140.415 306.206C141.225 305.396 142.324 304.94 143.471 304.94H191.56L189.679 309.262Z" fill="#E0E0E0"/>
<path d="M73.8231 268.535C73.8363 268.694 73.8363 268.854 73.8231 269.013C73.8231 269.349 73.8231 269.816 73.8231 270.406C73.8231 270.996 73.8943 271.759 73.9757 272.653C74.057 273.548 74.2299 274.545 74.4129 275.704C74.9693 278.446 75.8217 281.119 76.9552 283.677C78.4329 287.051 80.3735 290.204 82.7211 293.043L82.5991 292.981L109.222 297.049L108.967 297.171L119.777 278.948L122.828 273.813L122.93 274.179L108.184 265.606L108.052 265.525V265.362C109.405 250.393 110.564 237.519 111.398 228.357C111.825 223.811 112.171 220.222 112.415 217.669C112.537 216.449 112.639 215.503 112.71 214.822C112.71 214.517 112.771 214.273 112.791 214.09C112.785 214.009 112.785 213.927 112.791 213.846C112.805 213.926 112.805 214.009 112.791 214.09C112.791 214.283 112.791 214.527 112.791 214.832C112.74 215.503 112.669 216.459 112.588 217.69C112.384 220.212 112.089 223.791 111.723 228.387C110.94 237.54 109.842 250.434 108.571 265.403L108.439 265.169L123.194 273.721L123.418 273.853L123.286 274.077L120.235 279.223L109.496 297.385L109.405 297.537H109.242L82.6296 293.388H82.5482V293.337C78.3897 288.254 75.5624 282.215 74.3214 275.765C74.1386 274.756 74.0096 273.738 73.935 272.715C73.8615 271.964 73.8275 271.211 73.8333 270.457C73.8333 269.867 73.8333 269.44 73.8333 269.064C73.8137 268.888 73.8103 268.711 73.8231 268.535Z" fill="#263238"/>
<path d="M35.9939 286.891C35.9939 286.891 125.309 298.199 128.533 301.331C131.339 304.076 134.909 376.582 135.702 376.277L52.3153 373.114L35.9939 286.891Z" fill="#455A64"/>
<path d="M109.679 393.117C109.526 393.117 107.645 372.199 105.52 346.339C103.394 320.479 101.747 299.562 101.899 299.562C102.052 299.562 103.933 320.469 106.048 346.339C108.164 372.209 109.821 393.107 109.679 393.117Z" fill="#263238"/>
<path d="M18.422 193.162C18.4726 193.276 18.5101 193.396 18.5339 193.518L18.7779 194.535L19.683 198.501C20.466 201.989 21.5642 206.972 22.9371 213.124C25.6319 225.51 29.3436 242.614 33.4519 261.417C34.4688 266.125 35.4857 270.732 36.4213 275.186C36.8992 277.413 37.3772 279.589 37.8348 281.735C37.9466 282.264 38.0585 282.803 38.1805 283.331C38.2656 283.848 38.3984 284.355 38.5771 284.847C38.9688 285.781 39.6495 286.565 40.5194 287.084C40.9467 287.333 41.4097 287.514 41.8922 287.623C42.36 287.735 42.9091 287.775 43.3871 287.846L46.3768 288.243L52.0918 288.985L62.3524 290.348L77.1891 292.382L81.2567 292.951L82.2736 293.104C82.3951 293.117 82.5146 293.144 82.6296 293.185H82.2635L81.2466 293.073L77.1789 292.606L62.3117 290.765L52.0511 289.473L46.3259 288.751L43.3362 288.375C42.8278 288.304 42.3193 288.263 41.8007 288.151C41.2683 288.029 40.7575 287.827 40.2855 287.551C39.3183 286.988 38.5614 286.124 38.1297 285.091C37.9381 284.569 37.7918 284.031 37.6924 283.484C37.5805 282.955 37.4687 282.467 37.3467 281.887C36.889 279.752 36.4111 277.565 35.923 275.349C34.9671 270.895 33.9705 266.288 32.9434 261.58C28.8758 242.716 25.2353 225.652 22.5811 213.256C21.2795 207.094 20.2321 202.07 19.5304 198.603C19.1745 196.894 18.9101 195.552 18.7169 194.606C18.6355 194.169 18.5644 193.823 18.5135 193.589C18.4627 193.355 18.422 193.172 18.422 193.162Z" fill="#263238"/>
<path d="M129.834 307.096C129.986 307.096 131.685 326.417 133.647 350.192C135.61 373.968 137.074 393.319 136.922 393.33C136.769 393.34 135.071 374.008 133.118 350.233C131.166 326.458 129.691 307.106 129.834 307.096Z" fill="#263238"/>
<path d="M440.184 29.7842H233.06V211.15H440.184V29.7842Z" fill="white"/>
<path d="M440.174 112.998H233.559V211.15H440.174V112.998Z" fill="#EBEBEB"/>
<path d="M401.776 90.1687C401.776 90.3111 373.424 90.4331 338.473 90.4331C303.522 90.4331 275.161 90.3111 275.161 90.1687C275.161 90.0263 303.502 89.9043 338.473 89.9043C373.445 89.9043 401.776 90.0162 401.776 90.1687Z" fill="#263238"/>
<path d="M438.984 49.4109C438.984 49.5532 393.111 49.6753 336.531 49.6753C279.95 49.6753 234.067 49.5532 234.067 49.4109C234.067 49.2685 279.93 49.1465 336.531 49.1465C393.132 49.1465 438.984 49.2583 438.984 49.4109Z" fill="#263238"/>
<path d="M244.267 42.3636C246.002 42.3636 247.409 40.9568 247.409 39.2213C247.409 37.4859 246.002 36.0791 244.267 36.0791C242.531 36.0791 241.125 37.4859 241.125 39.2213C241.125 40.9568 242.531 42.3636 244.267 42.3636Z" fill="#263238"/>
<path d="M254.782 42.3636C256.517 42.3636 257.924 40.9568 257.924 39.2213C257.924 37.4859 256.517 36.0791 254.782 36.0791C253.046 36.0791 251.639 37.4859 251.639 39.2213C251.639 40.9568 253.046 42.3636 254.782 42.3636Z" fill="#263238"/>
<path d="M268.438 39.2213C268.438 39.8428 268.254 40.4503 267.909 40.9671C267.564 41.4838 267.073 41.8866 266.499 42.1244C265.925 42.3622 265.293 42.4245 264.683 42.3032C264.074 42.182 263.514 41.8827 263.074 41.4432C262.635 41.0038 262.336 40.4439 262.214 39.8344C262.093 39.2248 262.155 38.593 262.393 38.0189C262.631 37.4447 263.034 36.9539 263.55 36.6087C264.067 36.2634 264.675 36.0791 265.296 36.0791C265.709 36.0791 266.117 36.1604 266.499 36.3183C266.88 36.4762 267.226 36.7077 267.518 36.9994C267.81 37.2912 268.041 37.6376 268.199 38.0189C268.357 38.4001 268.438 38.8087 268.438 39.2213Z" fill="#263238"/>
<path d="M278.334 89.8834C278.24 88.9009 278.08 87.9259 277.856 86.9649C277.165 84.3683 275.622 82.0795 273.473 80.4668C271.895 79.2792 270.044 78.5054 268.091 78.2159C266.137 77.9264 264.142 78.1304 262.287 78.8093C261.218 79.1906 260.213 79.7324 259.307 80.416C258.347 81.1136 257.506 81.9618 256.816 82.9277C255.329 84.9422 254.527 87.3799 254.527 89.8834C254.527 92.3869 255.329 94.8246 256.816 96.839C257.506 97.805 258.347 98.6531 259.307 99.3508C260.213 100.034 261.218 100.576 262.287 100.958C263.84 101.522 265.494 101.758 267.143 101.648C268.792 101.539 270.4 101.087 271.864 100.322C273.329 99.5562 274.618 98.4941 275.65 97.2029C276.681 95.9117 277.433 94.4198 277.856 92.8223C278.08 91.8646 278.239 90.8929 278.334 89.9139C278.356 90.171 278.356 90.4296 278.334 90.6868C278.336 90.9967 278.312 91.3063 278.262 91.6121C278.22 92.0376 278.146 92.4592 278.039 92.8731C277.492 95.1334 276.309 97.1895 274.629 98.7973C272.949 100.405 270.843 101.497 268.561 101.944C266.409 102.352 264.186 102.177 262.124 101.435C261.006 101.042 259.954 100.483 259.002 99.7779C258 99.052 257.121 98.1695 256.399 97.1645C254.841 95.0623 254 92.5151 254 89.8986C254 87.2822 254.841 84.735 256.399 82.6328C257.124 81.6332 258.003 80.7546 259.002 80.0296C259.954 79.324 261.006 78.7653 262.124 78.372C264.186 77.6306 266.409 77.455 268.561 77.8635C270.848 78.3075 272.959 79.3995 274.643 81.0095C276.327 82.6195 277.513 84.6797 278.059 86.9445C278.165 87.3552 278.24 87.7733 278.283 88.1953C278.333 88.5046 278.357 88.8176 278.354 89.1309C278.368 89.3818 278.361 89.6336 278.334 89.8834Z" fill="#EAAA00"/>
<path d="M266.299 97.866C270.865 97.866 274.566 94.1645 274.566 89.5985C274.566 85.0325 270.865 81.3311 266.299 81.3311C261.733 81.3311 258.031 85.0325 258.031 89.5985C258.031 94.1645 261.733 97.866 266.299 97.866Z" fill="#EAAA00"/>
<path d="M267.693 94H266V87.4727L263.979 88.0996V86.7227L267.512 85.457H267.693V94Z" fill="black"/>
<path d="M387.773 63.5865C387.773 63.7289 367.658 63.8509 342.856 63.8509C318.054 63.8509 297.929 63.7289 297.929 63.5865C297.929 63.4441 318.074 63.3018 342.856 63.3018C367.638 63.3018 387.773 63.434 387.773 63.5865Z" fill="#263238"/>
<path d="M332.26 114.188L338.473 105.758L344.677 114.188H332.26Z" fill="#EBEBEB"/>
<path d="M440.174 211.149C440.174 209.268 440.083 138.949 439.95 29.7836L440.174 30.0073H233.071L233.335 29.7429C233.335 95.6385 233.335 157.7 233.335 211.108L233.101 210.875L440.215 211.108L233.101 211.342H232.867V211.108C232.867 157.7 232.867 95.6385 232.867 29.7429V29.4785H233.142H440.245H440.469V29.7429C440.266 138.908 440.174 209.268 440.174 211.149Z" fill="#263238"/>
<path d="M284.678 134.201C284.678 134.344 278.353 134.466 270.564 134.466C262.774 134.466 256.449 134.344 256.449 134.201C256.449 134.059 262.764 133.927 270.564 133.927C278.363 133.927 284.678 134.049 284.678 134.201Z" fill="#002855"/>
<path d="M313.661 156.98H260.314C258.396 156.98 256.557 156.218 255.201 154.862C253.845 153.506 253.083 151.667 253.083 149.75C253.083 148.8 253.27 147.86 253.634 146.983C253.997 146.106 254.53 145.309 255.201 144.637C255.872 143.966 256.67 143.433 257.547 143.07C258.424 142.707 259.364 142.52 260.314 142.52H313.661C314.611 142.518 315.552 142.704 316.431 143.067C317.309 143.43 318.107 143.962 318.78 144.634C319.452 145.305 319.986 146.103 320.35 146.981C320.714 147.858 320.901 148.799 320.901 149.75C320.901 150.7 320.714 151.641 320.35 152.519C319.986 153.397 319.452 154.194 318.78 154.866C318.107 155.537 317.309 156.07 316.431 156.433C315.552 156.795 314.611 156.981 313.661 156.98Z" fill="#FAFAFA"/>
<path d="M383.4 134.201C383.4 134.344 377.41 134.466 370.027 134.466C362.645 134.466 356.655 134.344 356.655 134.201C356.655 134.059 362.634 133.927 370.027 133.927C377.42 133.927 383.4 134.049 383.4 134.201Z" fill="#002855"/>
<path d="M283.936 173.627C283.936 173.769 277.946 173.891 270.564 173.891C263.181 173.891 257.191 173.769 257.191 173.627C257.191 173.484 263.171 173.362 270.564 173.362C277.957 173.362 283.936 173.474 283.936 173.627Z" fill="#002855"/>
<path d="M410.551 156.98H357.194C355.277 156.98 353.438 156.218 352.082 154.862C350.726 153.506 349.964 151.667 349.964 149.75C349.964 148.8 350.151 147.86 350.514 146.983C350.878 146.106 351.41 145.309 352.082 144.637C352.753 143.966 353.55 143.433 354.427 143.07C355.305 142.707 356.245 142.52 357.194 142.52H410.551C411.501 142.52 412.441 142.707 413.318 143.07C414.195 143.433 414.993 143.966 415.664 144.637C416.335 145.309 416.868 146.106 417.231 146.983C417.595 147.86 417.782 148.8 417.782 149.75C417.782 151.667 417.02 153.506 415.664 154.862C414.308 156.218 412.469 156.98 410.551 156.98Z" fill="#FAFAFA"/>
<path d="M412.525 197.005H260.71C259.76 197.007 258.819 196.821 257.94 196.458C257.062 196.095 256.264 195.563 255.591 194.891C254.919 194.22 254.385 193.422 254.021 192.544C253.657 191.667 253.47 190.725 253.47 189.775C253.47 188.825 253.657 187.884 254.021 187.006C254.385 186.128 254.919 185.331 255.591 184.659C256.264 183.987 257.062 183.455 257.94 183.092C258.819 182.73 259.76 182.544 260.71 182.545H412.525C413.475 182.544 414.416 182.73 415.295 183.092C416.173 183.455 416.971 183.987 417.644 184.659C418.316 185.331 418.85 186.128 419.214 187.006C419.578 187.884 419.765 188.825 419.765 189.775C419.765 190.725 419.578 191.667 419.214 192.544C418.85 193.422 418.316 194.22 417.644 194.891C416.971 195.563 416.173 196.095 415.295 196.458C414.416 196.821 413.475 197.007 412.525 197.005Z" fill="#FAFAFA"/>
<path d="M449.612 42.49C455.482 36.6205 455.482 27.1041 449.612 21.2346C443.743 15.365 434.226 15.365 428.357 21.2346C422.487 27.1041 422.487 36.6205 428.357 42.49C434.226 48.3596 443.743 48.3596 449.612 42.49Z" fill="#002855"/>
<path d="M445.173 27.6831L443.044 25.5547L433.495 35.1038L435.624 37.2323L445.173 27.6831Z" fill="white"/>
<path d="M409.299 98.116C414.003 98.116 417.816 94.3026 417.816 89.5985C417.816 84.8945 414.003 81.0811 409.299 81.0811C404.595 81.0811 400.781 84.8945 400.781 89.5985C400.781 94.3026 404.595 98.116 409.299 98.116Z" fill="white" stroke="#263238" stroke-width="0.5"/>
<path d="M407.825 88.9844H408.728C409.157 88.9844 409.476 88.877 409.683 88.6621C409.89 88.4473 409.993 88.1621 409.993 87.8066C409.993 87.4629 409.89 87.1953 409.683 87.0039C409.479 86.8125 409.198 86.7168 408.839 86.7168C408.515 86.7168 408.243 86.8066 408.024 86.9863C407.806 87.1621 407.696 87.3926 407.696 87.6777H406.003C406.003 87.2324 406.122 86.834 406.36 86.4824C406.603 86.127 406.938 85.8496 407.368 85.6504C407.802 85.4512 408.278 85.3516 408.798 85.3516C409.7 85.3516 410.407 85.5684 410.919 86.002C411.431 86.4316 411.687 87.0254 411.687 87.7832C411.687 88.1738 411.567 88.5332 411.329 88.8613C411.091 89.1895 410.778 89.4414 410.392 89.6172C410.872 89.7891 411.229 90.0469 411.464 90.3906C411.702 90.7344 411.821 91.1406 411.821 91.6094C411.821 92.3672 411.544 92.9746 410.989 93.4316C410.438 93.8887 409.708 94.1172 408.798 94.1172C407.946 94.1172 407.249 93.8926 406.706 93.4434C406.167 92.9941 405.897 92.4004 405.897 91.6621H407.591C407.591 91.9824 407.71 92.2441 407.948 92.4473C408.19 92.6504 408.487 92.752 408.839 92.752C409.241 92.752 409.556 92.6465 409.782 92.4355C410.013 92.2207 410.128 91.9375 410.128 91.5859C410.128 90.7344 409.659 90.3086 408.722 90.3086H407.825V88.9844Z" fill="black"/>
<path d="M435.632 25.5386L433.504 27.667L443.053 37.2161L445.181 35.0877L435.632 25.5386Z" fill="white"/>
<path d="M337.776 98.116C342.48 98.116 346.294 94.3026 346.294 89.5985C346.294 84.8945 342.48 81.0811 337.776 81.0811C333.072 81.0811 329.259 84.8945 329.259 89.5985C329.259 94.3026 333.072 98.116 337.776 98.116Z" fill="white" stroke="#263238" stroke-width="0.5"/>
<path d="M340.428 94H334.58V92.8398L337.34 89.8984C337.719 89.4844 337.998 89.123 338.178 88.8145C338.361 88.5059 338.453 88.2129 338.453 87.9355C338.453 87.5566 338.357 87.2598 338.166 87.0449C337.975 86.8262 337.701 86.7168 337.346 86.7168C336.963 86.7168 336.66 86.8496 336.438 87.1152C336.219 87.377 336.109 87.7227 336.109 88.1523H334.41C334.41 87.6328 334.533 87.1582 334.779 86.7285C335.029 86.2988 335.381 85.9629 335.834 85.7207C336.287 85.4746 336.801 85.3516 337.375 85.3516C338.254 85.3516 338.936 85.5625 339.42 85.9844C339.908 86.4062 340.152 87.002 340.152 87.7715C340.152 88.1934 340.043 88.623 339.824 89.0605C339.605 89.498 339.23 90.0078 338.699 90.5898L336.76 92.6348H340.428V94Z" fill="black"/>
</svg>
