<svg width="21" height="24" viewBox="0 0 21 24" fill="none" xmlns="http://www.w3.org/2000/svg">
<path d="M15.6094 19.8125H13.2191V23.9999H15.6094V19.8125Z" fill="#022E64"/>
<path d="M7.89587 0H21V24H17.0154V18.4063H11.8127V24H7.89587V0ZM17.625 16.4218H19.0312V14.3925H17.625V16.4218ZM17.625 12.7441H19.0312V10.7148H17.625V12.7441ZM17.625 9.06647H19.0312V7.03711H17.625V9.06647ZM17.625 5.38879H19.0312V3.35944H17.625V5.38879ZM15.0156 16.4218H16.4218V14.3925H15.0156V16.4218ZM15.0156 12.7441H16.4218V10.7148H15.0156V12.7441ZM15.0156 9.06647H16.4218V7.03711H15.0156V9.06647ZM15.0156 5.38879H16.4218V3.35944H15.0156V5.38879ZM12.4063 16.4218H13.8126V14.3925H12.4063V16.4218ZM12.4063 12.7441H13.8126V10.7148H12.4063V12.7441ZM12.4063 9.06647H13.8126V7.03711H12.4063V9.06647ZM12.4063 5.38879H13.8126V3.35944H12.4063V5.38879ZM9.79688 16.4218H11.2031V14.3925H9.79688V16.4218ZM9.79688 12.7441H11.2031V10.7148H9.79688V12.7441ZM9.79688 9.06647H11.2031V7.03711H9.79688V9.06647ZM9.79688 5.38879H11.2031V3.35944H9.79688V5.38879Z" fill="#022E64"/>
<path d="M6.48926 5.76562V24H0.749634V5.76562H6.48926ZM2.88245 21.414H4.2887V19.3846H2.88245V21.414ZM2.88245 17.7363H4.2887V15.707H2.88245V17.7363ZM2.88245 14.0587H4.2887V12.0293H2.88245V14.0587ZM2.88245 10.381H4.2887V8.35162H2.88245V10.381Z" fill="#022E64"/>
</svg>
