<svg width="7" height="7" viewBox="0 0 7 7" fill="none" xmlns="http://www.w3.org/2000/svg">
<path d="M3.49985 0C1.56711 0 0 1.56711 0 3.49985C0 5.43259 1.56711 7 3.49985 7C5.43259 7 7 5.43259 7 3.49985C7 1.56711 5.43259 0 3.49985 0ZM4.22844 5.4243C4.0483 5.49541 3.90489 5.54933 3.79733 5.58667C3.69007 5.624 3.56533 5.64267 3.42341 5.64267C3.20533 5.64267 3.03556 5.58933 2.91467 5.48296C2.79378 5.37659 2.73363 5.24178 2.73363 5.07793C2.73363 5.01422 2.73807 4.94904 2.74696 4.88267C2.75615 4.8163 2.77067 4.74163 2.79052 4.65778L3.016 3.86133C3.03585 3.78489 3.05304 3.7123 3.06667 3.64474C3.0803 3.57659 3.08681 3.51407 3.08681 3.45719C3.08681 3.35585 3.06578 3.28474 3.024 3.24474C2.98163 3.20474 2.90193 3.18519 2.78311 3.18519C2.72504 3.18519 2.66519 3.19378 2.60385 3.21185C2.54311 3.23052 2.49037 3.24741 2.44711 3.264L2.50667 3.01867C2.65422 2.95852 2.79556 2.90696 2.93037 2.8643C3.06519 2.82104 3.19259 2.7997 3.31259 2.7997C3.52919 2.7997 3.6963 2.85244 3.81393 2.95674C3.93096 3.06133 3.98993 3.19733 3.98993 3.36444C3.98993 3.39911 3.98578 3.46015 3.97778 3.54726C3.96978 3.63467 3.95467 3.71437 3.93274 3.78756L3.70844 4.58163C3.69007 4.64533 3.67378 4.71822 3.65896 4.7997C3.64444 4.88119 3.63733 4.94341 3.63733 4.98519C3.63733 5.09067 3.66074 5.16267 3.70815 5.20089C3.75496 5.23911 3.83704 5.25837 3.95319 5.25837C4.008 5.25837 4.06933 5.24859 4.13867 5.22963C4.20741 5.21067 4.25718 5.19378 4.28859 5.17926L4.22844 5.4243ZM4.18874 2.20119C4.08415 2.29837 3.95822 2.34696 3.81096 2.34696C3.664 2.34696 3.53719 2.29837 3.4317 2.20119C3.32681 2.104 3.27378 1.98578 3.27378 1.8477C3.27378 1.70993 3.32711 1.59141 3.4317 1.49333C3.53719 1.39496 3.664 1.34607 3.81096 1.34607C3.95822 1.34607 4.08444 1.39496 4.18874 1.49333C4.29333 1.59141 4.34578 1.70993 4.34578 1.8477C4.34578 1.98607 4.29333 2.104 4.18874 2.20119Z" fill="#4A90E2"/>
</svg>
