<svg width="44" height="44" viewBox="0 0 44 44" fill="none" xmlns="http://www.w3.org/2000/svg">
<path d="M36.6663 3.66663H18.333C16.8743 3.66663 15.4754 4.24609 14.4439 5.27754C13.4125 6.30899 12.833 7.70794 12.833 9.16663V22C12.833 23.4587 13.4125 24.8576 14.4439 25.889C15.4754 26.9205 16.8743 27.5 18.333 27.5H36.6663C38.125 27.5 39.524 26.9205 40.5554 25.889C41.5869 24.8576 42.1663 23.4587 42.1663 22V9.16663C42.1663 7.70794 41.5869 6.30899 40.5554 5.27754C39.524 4.24609 38.125 3.66663 36.6663 3.66663ZM38.4997 22C38.4997 22.4862 38.3065 22.9525 37.9627 23.2963C37.6189 23.6401 37.1526 23.8333 36.6663 23.8333H18.333C17.8468 23.8333 17.3805 23.6401 17.0366 23.2963C16.6928 22.9525 16.4997 22.4862 16.4997 22V9.16663C16.4997 8.6804 16.6928 8.21408 17.0366 7.87026C17.3805 7.52645 17.8468 7.33329 18.333 7.33329H36.6663C37.1526 7.33329 37.6189 7.52645 37.9627 7.87026C38.3065 8.21408 38.4997 8.6804 38.4997 9.16663V22ZM32.083 14.6666C31.4043 14.6689 30.7507 14.9238 30.2497 15.3816C29.8554 15.0233 29.3656 14.7872 28.8397 14.702C28.3139 14.6168 27.7746 14.6862 27.2874 14.9018C26.8002 15.1173 26.3861 15.4697 26.0954 15.9162C25.8047 16.3626 25.65 16.8839 25.65 17.4166C25.65 17.9494 25.8047 18.4706 26.0954 18.9171C26.3861 19.3635 26.8002 19.7159 27.2874 19.9315C27.7746 20.147 28.3139 20.2164 28.8397 20.1312C29.3656 20.0461 29.8554 19.8099 30.2497 19.4516C30.5807 19.7525 30.9802 19.9681 31.4135 20.0797C31.8467 20.1913 32.3006 20.1954 32.7359 20.0919C33.1711 19.9883 33.5745 19.7801 33.9111 19.4854C34.2476 19.1906 34.5072 18.8182 34.6673 18.4005C34.8273 17.9827 34.883 17.5322 34.8296 17.088C34.7761 16.6438 34.6151 16.2194 34.3605 15.8515C34.1059 15.4837 33.7654 15.1835 33.3685 14.977C32.9716 14.7705 32.5304 14.664 32.083 14.6666ZM29.333 31.1666C28.8468 31.1666 28.3805 31.3598 28.0366 31.7036C27.6928 32.0474 27.4997 32.5137 27.4997 33V34.8333C27.4997 35.3195 27.3065 35.7858 26.9627 36.1297C26.6189 36.4735 26.1526 36.6666 25.6663 36.6666H7.33301C6.84678 36.6666 6.38046 36.4735 6.03664 36.1297C5.69283 35.7858 5.49967 35.3195 5.49967 34.8333V27.5H7.33301C7.81924 27.5 8.28555 27.3068 8.62937 26.963C8.97319 26.6192 9.16634 26.1529 9.16634 25.6666C9.16634 25.1804 8.97319 24.7141 8.62937 24.3703C8.28555 24.0264 7.81924 23.8333 7.33301 23.8333H5.49967V22C5.49967 21.5137 5.69283 21.0474 6.03664 20.7036C6.38046 20.3598 6.84678 20.1666 7.33301 20.1666C7.81924 20.1666 8.28555 19.9735 8.62937 19.6297C8.97319 19.2858 9.16634 18.8195 9.16634 18.3333C9.16634 17.8471 8.97319 17.3807 8.62937 17.0369C8.28555 16.6931 7.81924 16.5 7.33301 16.5C5.87432 16.5 4.47537 17.0794 3.44392 18.1109C2.41247 19.1423 1.83301 20.5413 1.83301 22V34.8333C1.83301 36.292 2.41247 37.6909 3.44392 38.7224C4.47537 39.7538 5.87432 40.3333 7.33301 40.3333H25.6663C27.125 40.3333 28.524 39.7538 29.5554 38.7224C30.5869 37.6909 31.1663 36.292 31.1663 34.8333V33C31.1663 32.5137 30.9732 32.0474 30.6294 31.7036C30.2856 31.3598 29.8192 31.1666 29.333 31.1666ZM10.9997 33H12.833C13.3192 33 13.7856 32.8068 14.1294 32.463C14.4732 32.1192 14.6663 31.6529 14.6663 31.1666C14.6663 30.6804 14.4732 30.2141 14.1294 29.8703C13.7856 29.5264 13.3192 29.3333 12.833 29.3333H10.9997C10.5134 29.3333 10.0471 29.5264 9.70331 29.8703C9.3595 30.2141 9.16634 30.6804 9.16634 31.1666C9.16634 31.6529 9.3595 32.1192 9.70331 32.463C10.0471 32.8068 10.5134 33 10.9997 33Z" fill="black" fill-opacity="0.54"/>
</svg>
