<svg width="44" height="44" viewBox="0 0 44 44" fill="none" xmlns="http://www.w3.org/2000/svg">
<path d="M36.6668 3.6665H18.3335C16.8748 3.6665 15.4759 4.24597 14.4444 5.27742C13.413 6.30887 12.8335 7.70781 12.8335 9.1665V21.9998C12.8335 23.4585 13.413 24.8575 14.4444 25.8889C15.4759 26.9204 16.8748 27.4998 18.3335 27.4998H36.6668C38.1255 27.4998 39.5245 26.9204 40.5559 25.8889C41.5874 24.8575 42.1668 23.4585 42.1668 21.9998V9.1665C42.1668 7.70781 41.5874 6.30887 40.5559 5.27742C39.5245 4.24597 38.1255 3.6665 36.6668 3.6665ZM38.5002 21.9998C38.5002 22.4861 38.307 22.9524 37.9632 23.2962C37.6194 23.64 37.1531 23.8332 36.6668 23.8332H18.3335C17.8473 23.8332 17.3809 23.64 17.0371 23.2962C16.6933 22.9524 16.5002 22.4861 16.5002 21.9998V9.1665C16.5002 8.68027 16.6933 8.21396 17.0371 7.87014C17.3809 7.52633 17.8473 7.33317 18.3335 7.33317H36.6668C37.1531 7.33317 37.6194 7.52633 37.9632 7.87014C38.307 8.21396 38.5002 8.68027 38.5002 9.1665V21.9998ZM32.0835 14.6665C31.4048 14.6688 30.7512 14.9237 30.2502 15.3815C29.8559 15.0232 29.3661 14.7871 28.8402 14.7019C28.3144 14.6167 27.775 14.6861 27.2879 14.9016C26.8007 15.1172 26.3866 15.4696 26.0959 15.916C25.8052 16.3625 25.6505 16.8838 25.6505 17.4165C25.6505 17.9492 25.8052 18.4705 26.0959 18.917C26.3866 19.3634 26.8007 19.7158 27.2879 19.9314C27.775 20.1469 28.3144 20.2163 28.8402 20.1311C29.3661 20.0459 29.8559 19.8098 30.2502 19.4515C30.5812 19.7524 30.9807 19.968 31.414 20.0796C31.8472 20.1911 32.3011 20.1953 32.7364 20.0918C33.1716 19.9882 33.575 19.78 33.9115 19.4853C34.2481 19.1905 34.5077 18.8181 34.6677 18.4004C34.8278 17.9826 34.8835 17.5321 34.8301 17.0879C34.7766 16.6437 34.6156 16.2193 34.361 15.8514C34.1064 15.4836 33.7659 15.1834 33.369 14.9769C32.9721 14.7704 32.5309 14.6639 32.0835 14.6665ZM29.3335 31.1665C28.8473 31.1665 28.3809 31.3597 28.0371 31.7035C27.6933 32.0473 27.5002 32.5136 27.5002 32.9998V34.8332C27.5002 35.3194 27.307 35.7857 26.9632 36.1295C26.6194 36.4734 26.1531 36.6665 25.6668 36.6665H7.3335C6.84727 36.6665 6.38095 36.4734 6.03713 36.1295C5.69332 35.7857 5.50016 35.3194 5.50016 34.8332V27.4998H7.3335C7.81973 27.4998 8.28604 27.3067 8.62986 26.9629C8.97367 26.619 9.16683 26.1527 9.16683 25.6665C9.16683 25.1803 8.97367 24.714 8.62986 24.3701C8.28604 24.0263 7.81973 23.8332 7.3335 23.8332H5.50016V21.9998C5.50016 21.5136 5.69332 21.0473 6.03713 20.7035C6.38095 20.3597 6.84727 20.1665 7.3335 20.1665C7.81973 20.1665 8.28604 19.9734 8.62986 19.6295C8.97367 19.2857 9.16683 18.8194 9.16683 18.3332C9.16683 17.8469 8.97367 17.3806 8.62986 17.0368C8.28604 16.693 7.81973 16.4998 7.3335 16.4998C5.87481 16.4998 4.47586 17.0793 3.44441 18.1107C2.41296 19.1422 1.8335 20.5411 1.8335 21.9998V34.8332C1.8335 36.2919 2.41296 37.6908 3.44441 38.7223C4.47586 39.7537 5.87481 40.3332 7.3335 40.3332H25.6668C27.1255 40.3332 28.5245 39.7537 29.5559 38.7223C30.5874 37.6908 31.1668 36.2919 31.1668 34.8332V32.9998C31.1668 32.5136 30.9737 32.0473 30.6299 31.7035C30.286 31.3597 29.8197 31.1665 29.3335 31.1665ZM11.0002 32.9998H12.8335C13.3197 32.9998 13.786 32.8067 14.1299 32.4629C14.4737 32.1191 14.6668 31.6527 14.6668 31.1665C14.6668 30.6803 14.4737 30.214 14.1299 29.8701C13.786 29.5263 13.3197 29.3332 12.8335 29.3332H11.0002C10.5139 29.3332 10.0476 29.5263 9.7038 29.8701C9.35998 30.214 9.16683 30.6803 9.16683 31.1665C9.16683 31.6527 9.35998 32.1191 9.7038 32.4629C10.0476 32.8067 10.5139 32.9998 11.0002 32.9998Z" fill="#DDAD31"/>
</svg>
