<svg width="26" height="26" viewBox="0 0 26 26" fill="none" xmlns="http://www.w3.org/2000/svg">
<g clip-path="url(#clip0)">
<path d="M16.5208 0H2.97917C1.3325 0 0 1.3325 0 2.97917V20.8542C0 22.5008 1.3325 23.8333 2.97917 23.8333H14.2458C14.1375 23.3133 14.0833 22.7608 14.0833 22.2083V16.5208C14.0833 16.4342 14.0833 16.3367 14.0942 16.25H4.33333C3.7375 16.25 3.25 15.7625 3.25 15.1667C3.25 14.5708 3.7375 14.0833 4.33333 14.0833H14.5383C15.3508 11.96 17.225 10.3458 19.5 9.89083V2.97917C19.5 1.3325 18.1675 0 16.5208 0V0ZM4.33333 5.41667H9.75C10.3458 5.41667 10.8333 5.90417 10.8333 6.5C10.8333 7.09583 10.3458 7.58333 9.75 7.58333H4.33333C3.7375 7.58333 3.25 7.09583 3.25 6.5C3.25 5.90417 3.7375 5.41667 4.33333 5.41667ZM15.1667 11.9167H4.33333C3.7375 11.9167 3.25 11.4292 3.25 10.8333C3.25 10.2375 3.7375 9.75 4.33333 9.75H15.1667C15.7625 9.75 16.25 10.2375 16.25 10.8333C16.25 11.4292 15.7625 11.9167 15.1667 11.9167Z" fill="black"/>
<path d="M22.2087 26.0002C20.1178 26.0002 18.417 24.2993 18.417 22.2085V16.521C18.417 15.1766 19.5112 14.0835 20.8545 14.0835C22.1978 14.0835 23.292 15.1766 23.292 16.521V21.9377C23.292 22.3862 22.928 22.7502 22.4795 22.7502C22.031 22.7502 21.667 22.3862 21.667 21.9377V16.521C21.667 16.0725 21.3019 15.7085 20.8545 15.7085C20.4071 15.7085 20.042 16.0725 20.042 16.521V22.2085C20.042 23.4034 21.0137 24.3752 22.2087 24.3752C23.4036 24.3752 24.3753 23.4034 24.3753 22.2085V14.896C24.3753 14.4475 24.7393 14.0835 25.1878 14.0835C25.6363 14.0835 26.0003 14.4475 26.0003 14.896V22.2085C26.0003 24.2993 24.2995 26.0002 22.2087 26.0002Z" fill="black"/>
</g>
<defs>
<clipPath id="clip0">
<rect width="26" height="26" fill="white"/>
</clipPath>
</defs>
</svg>
