<svg xmlns="http://www.w3.org/2000/svg" width="115.549" height="104.105" viewBox="0 0 115.549 104.105"><defs><style>.a{fill:#5e87ad;}.b{fill:#16334e;}.c{fill:#fff;}</style></defs><g transform="translate(-124 -321)"><g transform="translate(124 321)"><path class="a" d="M57.014,5a53.016,53.016,0,0,0-38.2,16.664l-.6-4.084a3.853,3.853,0,1,0-7.61,1.079l1.926,12.965v.462l.116.366a.34.34,0,0,0,.135.308,1.926,1.926,0,0,0,.193.327l.173.27a2.061,2.061,0,0,0,.27.308l.212.231.347.289.154.116h0a1.927,1.927,0,0,0,.443.231l.212.116.674.193h1.252l12.965-1.926a3.892,3.892,0,0,0-1.1-7.706l-3.2.462A45.118,45.118,0,0,1,57.014,12.706,44.309,44.309,0,1,1,12.706,57.014a3.853,3.853,0,1,0-7.706,0A52.014,52.014,0,1,0,57.014,5Z" transform="translate(-5 -5)"/><path class="a" d="M32.081,1A31.081,31.081,0,1,0,63.162,32.081,31.081,31.081,0,0,0,32.081,1Zm0,13.32h4.44v22.2H18.761v-4.44h13.32Z" transform="translate(20.191 20.191)"/></g><g transform="translate(197.881 383.993)"><ellipse class="b" cx="21" cy="20.5" rx="21" ry="20.5" transform="translate(-0.332 0.112)"/><path class="c" d="M24.094-36.576,22.669-38l-5.622,5.622L11.424-38,10-36.576l5.622,5.622L10-25.331l1.424,1.424,5.622-5.622,5.622,5.622,1.424-1.424-5.622-5.622Z" transform="translate(3.951 51.514)"/></g></g></svg>